# xmcd
#
# Track frame offsets:
#       150
#       11374
#       22632
#       27286
#       37708
#       44800
#       49694
#       61502
#       67745
#       78347
#       86372
#       94439
#       98040
#
# Disc length: 1350 seconds
#
# Revision: 8
# Processed by: cddbd v1.5.2PL0 Copyright (c) Steve Scherf et al.
# Submitted via: WaveLab 4.01
#
DISCID=8605440d
DTITLE=Tino Ulrich - Utopia Blues
DYEAR=2000
DGENRE=
TTITLE0=Titel 01
TTITLE1=Titel 02
TTITLE2=Titel 03
TTITLE3=Titel 04
TTITLE4=Titel 05
TTITLE5=Titel 06
TTITLE6=Titel 07
TTITLE7=Titel 08
TTITLE8=Titel 09
TTITLE9=Titel 10
TTITLE10=Titel 11
TTITLE11=Titel 12
TTITLE12=Titel 13
EXTD=
EXTT0=
EXTT1=
EXTT2=
EXTT3=
EXTT4=
EXTT5=
EXTT6=
EXTT7=
EXTT8=
EXTT9=
EXTT10=
EXTT11=
EXTT12=
PLAYORDER=
